/* XPM */
static char *image_xpm[] = {
/* width height ncolors chars_per_pixel */
"32 32 57 1",
"  c #001021",
". c #001019",
"+ c #000810",
"@ c #000008",
"# c #000000",
"$ c #000819",
"% c #001931",
"& c #001929",
"* c #002131",
"= c #00425a",
"- c #003a52",
"; c #00314a",
"> c #003a4a",
", c #00849c",
"' c #00293a",
") c #002942",
"! c #000010",
"~ c #007b9c",
"{ c #003152",
"] c #00adc5",
"^ c #004263",
"/ c #00a5bd",
"( c #00adce",
"_ c #f7f7f7",
": c #31c5e6",
"< c #21bdde",
"[ c #42e6ff",
"} c #84e6ff",
"| c #4ac5de",
"1 c #6be6ff",
"2 c #52e6ff",
"3 c #082131",
"4 c #ffffff",
"5 c #94e6ff",
"6 c #424252",
"7 c #7be6ff",
"8 c #94949c",
"9 c #10b5d6",
"0 c #42ceef",
"a c #313a4a",
"b c #08a5ce",
"c c #19b5d6",
"d c #6b6b73",
"e c #4aceef",
"f c #63e6ff",
"g c #4ae6ff",
"h c #3ac5e6",
"i c #5a5a6b",
"j c #8ce6ff",
"k c #73e6ff",
"l c #5ae6ff",
"m c #52def7",
"n c #29c5de",
"o c #424a52",
"p c #3acee6",
"q c #efefef",
"r c #29bdde",
"44444444444444444444444444444444",
"44444444444444444444444444444444",
"44444444444 .+@##44_.+@$%&& **&4",
"444444444=-;.+@+44*&.& =>&&.+*@4",
"44444444,')-!+444  )+# *@$.+#;@4",
"444444_~,>& .44{=-== .$. =;+-;@4",
"44444]]b<=-)4444444444444^^~~,44",
"4444/h:~~=444444444444444~=~~b44",
"448<51hr<44~==- .+4o+*&44~~~]b44",
"4hrl:1hr44]~=,=-q44o& +44]b]p744",
"]hll:144_:]b~,=4444o-**44~br:444",
"]<}l:44]]b]]]^44444o>**44~9nl444",
"m<fb44kh:}::4444444o~,;44~]:g444",
"l]],4d:h1kk44444444o:];44pn]:444",
"l]~,4drpr1444444444o]]]44]n]4444",
"(]~,4d1724444444444ohrl44~],4444",
"rrb]4de7}0444444444o}l:44~],4444",
"hhr]4d:bll:44444444o1r:44~=)4444",
"crk544]b:lp:l444444o~,b44-=44444",
"]0lll446hrp1f244444o,]b44% 44444",
"llhnrl44_n:]bpl4444o-~,44%;44444",
"4}7lllll44=~,n:<]44o-)-44+*44444",
"446[hjkhr446;~,b,$4o )*44+*44444",
"444_h,[](~|44=>){.*) ^>44 444444",
"44444-0:]]b=443+#**&*&+44+444444",
"444444ohn<=;-44i#.@#+& 44@444444",
"44444444]b~,>; 44& .@& 44#444444",
"444444444a% ;  +446 @& 444444444",
"44444444444444444444444444444444",
"44444444444444444444444444444444",
"44444444444444444444444444444444",
"44444444444444444444444444444444",
};