/* XPM */
static char *image_xpm[] = {
/* width height ncolors chars_per_pixel */
"16 16 39 1",
"  c #00425a",
". c #00314a",
"+ c #000810",
"@ c #001929",
"# c #000819",
"$ c #002131",
"% c #007b9c",
"& c #003a4a",
"* c #001021",
"= c #003152",
"- c #003a52",
"; c #00849c",
"> c #00adc5",
", c #004263",
"' c #00adce",
") c #002942",
"! c #001931",
"~ c #000000",
"{ c #000008",
"] c #f7f7f7",
"^ c #31c5e6",
"/ c #21bdde",
"( c #84e6ff",
"_ c #6be6ff",
": c #52e6ff",
"< c #ffffff",
"[ c #424252",
"} c #7be6ff",
"| c #42ceef",
"1 c #313a4a",
"2 c #08a5ce",
"3 c #6b6b73",
"4 c #5a5a6b",
"5 c #73e6ff",
"6 c #5ae6ff",
"7 c #29c5de",
"8 c #424a52",
"9 c #3acee6",
"0 c #29bdde",
"<<<<<<<<<<<<<<<<",
"<<<< .++<@@ @#$<",
"<<<%&*<=- ## +.<",
"<<9% <<<<<<<%%2<",
"^6_0<%;-<8*<>>}<",
"/6<>2>,<<8$<%7<<",
">;395<<<<8><9><<",
"';3}<<<<<80<%;<<",
"9>326<<<<80<%)<<",
"|6<[0_:<<8><!<<<",
"(666<%7/<8)<+<<<",
"<];>%< )#),<*<<<",
"<<<9/.<4#~@<{<<<",
"<<<<1**+<*@<<<<<",
"<<<<<<<<<<<<<<<<",
"<<<<<<<<<<<<<<<<",
};