/* XPM */
static char *image_xpm[] = {
/* width height ncolors chars_per_pixel */
"16 16 6 1",
"  c #000000",
". c #666666",
"+ c #ffffff",
"@ c #333333",
"# c #999999",
"$ c #cccccc",
"+++++#   @.+++++",
"+++#  @@@ @ #+++",
"++..#$$++$@@ .++",
"+#.$+++++++$@ $+",
"$@$+++++++++.  +",
"#.+++++++$+$$ @#",
" $++++++@      @",
"@++++++@        ",
" +++++.@       .",
"@$+++#@ @ @    @",
".#++..@@ @     #",
"+ +++++...#@  @$",
"+$@++++#.### @.+",
"++#.+++#+++@@.++",
"+++.@..+$$@@#+++",
"+++++.@ @@.+++++",
};