/* XPM */
static char *image_xpm[] = {
/* width height ncolors chars_per_pixel */
"64 64 94 2",
"   c #001021",
" . c #001019",
" + c #000819",
" @ c #000810",
" # c #000008",
" $ c #000000",
" % c #001931",
" & c #001929",
" * c #001029",
" = c #00213a",
" - c #002131",
" ; c #003a52",
" > c #003a4a",
" , c #00314a",
" ' c #00425a",
" ) c #003142",
" ! c #000010",
" ~ c #003a5a",
" { c #002942",
" ] c #00849c",
" ^ c #00293a",
" / c #007b9c",
" ( c #003152",
" _ c #0094b5",
" : c #004263",
" < c #00adc5",
" [ c #00a5c5",
" } c #00a5bd",
" | c #0094ad",
" 1 c #00adce",
" 2 c #00b5d6",
" 3 c #009cb5",
" 4 c #00e6ff",
" 5 c #00526b",
" 6 c #006b8c",
" 7 c #009cbd",
" 8 c #f7f7f7",
" 9 c #1094ad",
" 0 c #63636b",
" a c #6bdeef",
" b c #31c5e6",
" c c #21bdde",
" d c #42e6ff",
" e c #84e6ff",
" f c #636b7b",
" g c #d6d6de",
" h c #197b94",
" i c #4ac5de",
" j c #6be6ff",
" k c #73737b",
" l c #52e6ff",
" m c #bdced6",
" n c #dedede",
" o c #082131",
" p c #f7ffff",
" q c #ffffff",
" r c #94e6ff",
" s c #424252",
" t c #7be6ff",
" u c #cecece",
" v c #94949c",
" w c #10b5d6",
" x c #08add6",
" y c #42ceef",
" z c #4a4a5a",
" A c #9c9ca5",
" B c #63def7",
" C c #313a4a",
" D c #08a5ce",
" E c #19b5d6",
" F c #6b6b73",
" G c #e6e6e6",
" H c #4aceef",
" I c #525263",
" J c #c5c5c5",
" K c #84848c",
" L c #63e6ff",
" M c #4ae6ff",
" N c #3ac5e6",
" O c #5a5a6b",
" P c #31e6ff",
" Q c #8ce6ff",
" R c #73e6ff",
" S c #b5b5bd",
" T c #5ae6ff",
" U c #9ce6ff",
" V c #52def7",
" W c #5a636b",
" X c #29c5de",
" Y c #424a52",
" Z c #3a3a4a",
" ` c #3acee6",
".  c #efefef",
".. c #29bdde",
" q q q q q q q q q q q q q q q q q q q q q q q q q q q q q q q q q q q q q q q q q q q q q q q q q q q q q q q q q q q q q q q q",
" q q q q q q q q q q q q q q q q q q q q q q q q q q q q q q q q q q q q q q q q q q q q q q q q q q q q q q q q q q q q q q q q",
" q q q q q q q q q q q q q q q q q q q q q q q q q q q q q q q q q q q q q q q q q q q q q q q q q q q q q q q q q q q q q q q q",
" q q q q q q q q q q q q q q q q q q q q q q q q q q q q q q q q q q q q q q q q q q q q q q q q q q q q q q q q q q q q q q q q",
" q q q q q q q q q q q q q q q q q q q q q q q q q q q q q q q q q q q q q q q q q q q q q q q q q q q q q q q q q q q q q q q q",
" q q q q q q q q q q q q q q q q q q q q q q     . . + @ @ # # $ $ $ $ q q q q 8   . + @ # # $ + % % & & & & *   = - - - - & & q",
" q q q q q q q q q q q q q q q q q q q q u ; > , . . + @ @ # # $ # G q q q q - &   . + @ #   . ' ; > , ) &     . + - - - - & $ q",
" q q q q q q q q q q q q q q q q q q q ' ; ; > , , . + @ ! # # @ q q q q q - - & % . + &     . ' ~ > { & & & & . ! @ - - - # $ q",
" q q q q q q q q q q q q q q q q q p ' ' ; ; > ) , ; # # @ @ @ q q q q W - - - + { @ & &     ' ' - - & &   * * * & & # - + # q q",
" q q q q q q q q q q q q q q q q k ] ^ ^ ^ ) , ; . ! @ @ @ q q q q q *       ) { @ @ # $ $   = - @ # $ +   . + @ # $ $ , + # q q",
" q q q q q q q q q q q q q q q / ] ] ^ ) , > *   . @ + . q q q q n & * { > ,   . @ @ , , + +   . @   . ' ; . + @ # ; > , + # q q",
" q q q q q q q q q q q q q 8 / / ] ] ] > ; & *   . . . q q q q ( & ' ; ; ] ' ' ' ;     . + +   . *   . ' ; , + @ ' ; > , ) # q q",
" q q q q q q q q q q q q h / / / ] _ D ' % & *     q q q q q - ' / ] ] ] ] ' & & *     . + + % & *   . ' ; , ) : ' ; > , ) q q q",
" q q q q q q q q q q q < < [ [ D.. c ] ' ' ; , ) q q q q q q q q q q q q q q q q q q q q q q q q q q s : : : : / / / ] ] ] q q q",
" q q q q q q q q q g [ < < [ b.. } ] ] ' ' ; m q q q q q q q q q q q q q q q q q q q q q q q q q q q s / : : ' / / / ] ] D q q q",
" q q q q q q q q / } < N N b b / ] ] ] ' ' q q q q q q q q q q q q q q q q q q q q q q q q q q q q q s / ' ' ' / ] / ] D D q q q",
" q q q q q q q ] T r e j l P b / / ] ] ' q q q q J ] > ' ' ; > ,   . . @ # I q z   - - - - &   q q q s / / ; ; / / / [ D q q q q",
" q q q q q v ] c T r e j l N b.... c q q q q q / ] ' > ' ' ; &     . . @ q q q z   @ # - - &   q q q s / / / , / / [ [ D q q q q",
" q q q q /.... T T b e j l N b.... q q q q q / / ] ' > ) - % &   ) ) { q q q q z   @ # $ - &   q q q s < / ] { / < [ [ D q q q q",
" q q 8 N b.. T T L b e j l N b.. q q q q A < [ / : ' ] ] ' ' ; ; ,.  q q q q q z ' &     - @ $ q q q s < [ D ] < ` ` ` t q q q q",
" q f N N b T T T y b e j ` N q q q q q b.. < [ D D / ] ] ' ' ; ; q q q q q q q z ' > {   - @ $ q q q s / [ D D b b b j q q q q q",
" s < E N T T T T y b.. j ` q q q q 8 y b.. < [ D D / ] ] ' ' ; q q q q q q q q z ' ; { - - - $ q q q s / [ D.... N b j q q q q q",
" s < [ c Q T T T y b.. n q q q q F [ D b.. < D D [ [ ] ] ' 8 q q q q q q q q q z ' > { - - - & q q q s / [ D.. N b T L q q q q q",
" Y < X c t e T T H b q q q q q < < [ D D.. [ [ [ [ < < : q q q q q q q q q q q z ~ > { - - - & q q q s / | w N X H T L q q q q q",
" s N X c L R e Q y q q q q n y N b b.. c E y N b X.. c q q q q q q q q q q q q z ] ] / ' ; , ) q q q s / ] b b b b l R q q q q q",
" s V X c l L R D q q q q r R y N b b.. e ` b N b X q q q q q q q q q q q q q q z / / / ] ; , ] q q q s / N < b b b M q q q q q q",
" s T T c P [ [ ] q q q F ` R M N b b t Q ` b.. b q q q q q q q q q q q q q q q z / / / ] ; , ] q q q s / N X < [ b M q q q q q q",
" s T T [ D < / ] q q q F w b M N l j t R R R a q q q q q q q q q q q q q q q q z / b < [ ] , ] q q q s ` N X < [ D b q q q q q q",
" s T T [ / D D ] q q q F c b.. ` r Q e j R q q q q q q q q q q q q q q q q q q z ` b.. [ D < ] q q q s ` N X < [ D { q q q q q q",
" s T < [ / / [ ] q q q F...... ` b.. Q j q q q q q q q q q q q q q q q q q q q z < [.. [ T < [ q q q s < 1 X.. [ D q q q q q q q",
" s < < [ D / ] < q q q F N N b ` b T T q q q q q q q q q q q q q q q q q q q q z < [ D.. T < [ q q q s < < [.. [ ; q q q q q q q",
" Y < < [ D / ] ] q q q F y j P t l T T q q q q q q q q q q q q q q q q q q q q z [ N b.. T T T q q q s / < [ D ] ; q q q q q q q",
" s E 2 [ D D ] ] q q q F Q j.. t e e Q q q q q q q q q q q q q q q q q q q q q z T T T T T b T q q q s / < [ D ] ; q q q q q q q",
" s...... D D ] [ q q q F Q H.. t t e T y q q q q q q q q q q q q q q q q q q q z R e T T N b.. q q q s / < [ ] ] q q q q q q q q",
" s X b b b b ] [ q q q F Q b.. E t T T T N b q q q q q q q q q q q q q q q q q z j t e T N b.. q q q s / < / ] ] q q q q q q q q",
" s N N N N.. j [ q q q F ` b.. D ` T T T N b.. q q q q q q q q q q q q q q q q z T j b.. c b T q q q s / { ' > ) q q q q q q q q",
" s y y c.. L R e q q q F < [ D D ` b.. c y T T T q q q q q q q q q q q q q q q z / / / ] ] D T q q q s ; * ' > ) q q q q q q q q",
" s E.... b R e r q q q q z [ D D ` b T T y ` N b T T q q q q q q q q q q q q q z / / / ] [ D T q q q s ; * ' > q q q q q q q q q",
" s.. X b j t Q T T q q q q n 9 D ` T T T y ` N b b.. T q q q q q q q q q q q q z / / / ] [ D D q q q s ; *   > q q q q q q q q q",
" Y < N y t T T T l T T q q q q s H N b.... ` R j j L T l T q q q q q q q q q q z ] ] / < [ D D q q q s % *   > q q q q q q q q q",
" s < D T T N b X.... E T q q q q 0 b b N.. E N b.. t t T T T q q q q q q q q q z / ] / / / ] ] q q q s % *   > q q q q q q q q q",
" s T T T ` N b X.... T T T q q q q 8 s X b b _ < [ D D ` T T T q q q q q q q q z / ; , / / ] , q q q s % * , q q q q q q q q q q",
" q s U T T T b X.... T T T T T q q q q s.. / / / [ D D N b.... c < q q q q q q z ' ; , / / ] , q q q s ' ; , q q q q q q q q q q",
" q q z e e t t T.. T T T T T T T q q q q K ' ' / ] ] D X.. b.. c < [ q q q q q z % ; , ) / ; , q q q s @ ; - q q q q q q q q q q",
" q q q g B j L L L U U r Q e t j b q q q q q s ; > , ) 3 < [ [ / / ] ] q q q q z % ; , ) ' ; , q q q s @ = - q q q q q q q q q q",
" q q q q q s M d d N r Q t R j N b.... q q q q s > , / / / ] [ D / ]   + ' q q z %   , ) - - , q q q s @ = - q q q q q q q q q q",
" q q q q q q O 4 4 N / ] j L ` N b.... x q q q q A : ' ' 5 ] ] ] / &   + ' ; q z %   . , - - ) q q q s   = q q q q q q q q q q q",
" q q q q q q q 8 Y N.. ] ] d ` < < D D / / i q q q q s ' ; > , ) ~ , ^ . - - , ) -   & : ' > $ q q q s   = q q q q q q q q q q q",
" q q q q q q q q q s ' / ] y N b.. E < _ / ] ] q q q q z ; > ' &     . = - - & & - - - & ' @ $ q q q s @ % q q q q q q q q q q q",
" q q q q q q q q q q v ; ] y N b [ [ [ < [ D 6 ' q q q q n o . @ # $ $ = - - & & - - - &   @ $ q q q s @ @ q q q q q q q q q q q",
" q q q q q q q q q q q q s ] N [ [ < < < [ ; ; ; ' ' q q q q s @ # $   . @ . & & - - # & * @ $ q q q s # q q q q q q q q q q q q",
" q q q q q q q q q q q q q Y y N b X.. c D ' , , > ; ; q q q q O # $   . @ # $ $   @ - & *   $ q q q s # q q q q q q q q q q q q",
" q q q q q q q q q q q q q q u N b X.. D D / / ' ; > , , q q q q G Z     &     + @ - - & *   $ q q q s # q q q q q q q q q q q q",
" q q q q q q q q q q q q q q q q s [ [ D 7 / / ] ] > , ) )   q q q q s & &     . @ # & & *   . q q q s $ q q q q q q q q q q q q",
" q q q q q q q q q q q q q q q q q z . @ $ % &     + % ; )   . q q q q F &     . @ # $ - &   . q q q s q q q q q q q q q q q q q",
" q q q q q q q q q q q q q q q q q q G C $ % &   ( ) %   .   . @ q q q q 8 s     ! # - & &   # q q q s q q q q q q q q q q q q q",
" q q q q q q q q q q q q q q q q q q q q s % ; ; , ) % = - - - - & $ q q q q s . = - - & & . # q q q S q q q q q q q q q q q q q",
" q q q q q q q q q q q q q q q q q q q q q q q q q q q q q q q q q q q q q q q q q q q q q q q q q q q q q q q q q q q q q q q q",
" q q q q q q q q q q q q q q q q q q q q q q q q q q q q q q q q q q q q q q q q q q q q q q q q q q q q q q q q q q q q q q q q",
" q q q q q q q q q q q q q q q q q q q q q q q q q q q q q q q q q q q q q q q q q q q q q q q q q q q q q q q q q q q q q q q q",
" q q q q q q q q q q q q q q q q q q q q q q q q q q q q q q q q q q q q q q q q q q q q q q q q q q q q q q q q q q q q q q q q",
" q q q q q q q q q q q q q q q q q q q q q q q q q q q q q q q q q q q q q q q q q q q q q q q q q q q q q q q q q q q q q q q q",
" q q q q q q q q q q q q q q q q q q q q q q q q q q q q q q q q q q q q q q q q q q q q q q q q q q q q q q q q q q q q q q q q",
" q q q q q q q q q q q q q q q q q q q q q q q q q q q q q q q q q q q q q q q q q q q q q q q q q q q q q q q q q q q q q q q q",
};